<svg xmlns="http://www.w3.org/2000/svg" xmlns:xlink="http://www.w3.org/1999/xlink" width="500" zoomAndPan="magnify" viewBox="0 0 375 374.999991" height="500" preserveAspectRatio="xMidYMid meet" version="1.0"><defs><clipPath id="4829e606cf"><path d="M 84 155 L 289 155 L 289 337.5 L 84 337.5 Z M 84 155 " clip-rule="nonzero"/></clipPath></defs><path fill="#ffffff" d="M 243.265625 144.332031 C 243.265625 159.671875 243.480469 175.007812 243.265625 190.347656 C 243.148438 192.128906 242.945312 193.902344 242.660156 195.664062 C 242.375 197.429688 242.007812 199.175781 241.558594 200.902344 C 241.109375 202.632812 240.582031 204.335938 239.972656 206.015625 C 239.363281 207.695312 238.675781 209.339844 237.910156 210.953125 C 237.144531 212.570312 236.308594 214.144531 235.394531 215.679688 C 234.480469 217.214844 233.5 218.703125 232.445312 220.148438 C 231.394531 221.589844 230.273438 222.980469 229.089844 224.316406 C 227.90625 225.65625 226.664062 226.933594 225.359375 228.15625 C 224.054688 229.375 222.695312 230.53125 221.285156 231.625 C 219.871094 232.71875 218.410156 233.742188 216.898438 234.695312 C 215.390625 235.652344 213.839844 236.535156 212.246094 237.34375 C 210.65625 238.152344 209.027344 238.886719 207.367188 239.542969 C 205.707031 240.199219 204.015625 240.773438 202.300781 241.269531 C 200.585938 241.769531 198.851562 242.183594 197.097656 242.519531 C 195.339844 242.851562 193.574219 243.101562 191.796875 243.269531 C 190.019531 243.4375 188.238281 243.523438 186.449219 243.523438 C 184.664062 243.523438 182.882812 243.4375 181.101562 243.269531 C 179.324219 243.101562 177.558594 242.851562 175.804688 242.519531 C 174.050781 242.183594 172.3125 241.769531 170.597656 241.269531 C 168.882812 240.773438 167.195312 240.199219 165.535156 239.542969 C 163.871094 238.886719 162.246094 238.152344 160.652344 237.34375 C 159.0625 236.535156 157.507812 235.652344 156 234.695312 C 154.492188 233.742188 153.03125 232.71875 151.617188 231.625 C 150.203125 230.53125 148.84375 229.375 147.542969 228.15625 C 146.238281 226.933594 144.992188 225.65625 143.808594 224.316406 C 142.625 222.980469 141.507812 221.589844 140.453125 220.148438 C 139.402344 218.703125 138.417969 217.214844 137.507812 215.679688 C 136.59375 214.144531 135.753906 212.570312 134.992188 210.953125 C 134.226562 209.339844 133.539062 207.695312 132.929688 206.015625 C 132.320312 204.335938 131.789062 202.632812 131.339844 200.902344 C 130.890625 199.175781 130.523438 197.429688 130.238281 195.664062 C 129.953125 193.902344 129.753906 192.128906 129.636719 190.347656 C 129.328125 159.503906 129.328125 128.578125 129.636719 97.570312 C 129.671875 96.082031 129.769531 94.59375 129.925781 93.113281 C 130.082031 91.632812 130.292969 90.15625 130.5625 88.691406 C 130.835938 87.226562 131.164062 85.773438 131.546875 84.332031 C 131.933594 82.894531 132.375 81.472656 132.871094 80.066406 C 133.367188 78.660156 133.917969 77.277344 134.523438 75.914062 C 135.128906 74.554688 135.785156 73.21875 136.496094 71.90625 C 137.207031 70.597656 137.964844 69.316406 138.777344 68.066406 C 139.589844 66.816406 140.445312 65.597656 141.351562 64.414062 C 142.257812 63.234375 143.210938 62.085938 144.207031 60.976562 C 145.203125 59.871094 146.242188 58.800781 147.320312 57.773438 C 148.402344 56.75 149.519531 55.765625 150.675781 54.828125 C 151.832031 53.886719 153.027344 52.996094 154.253906 52.148438 C 155.480469 51.304688 156.738281 50.507812 158.027344 49.761719 C 159.320312 49.015625 160.636719 48.320312 161.980469 47.675781 C 163.324219 47.035156 164.691406 46.445312 166.082031 45.90625 C 167.472656 45.371094 168.882812 44.890625 170.3125 44.464844 C 171.738281 44.042969 173.183594 43.671875 174.640625 43.359375 C 176.097656 43.046875 177.5625 42.792969 179.042969 42.597656 C 180.519531 42.402344 182 42.261719 183.488281 42.183594 C 184.976562 42.101562 186.46875 42.082031 187.957031 42.117188 C 189.445312 42.152344 190.933594 42.25 192.414062 42.402344 C 193.898438 42.554688 195.371094 42.765625 196.835938 43.035156 C 198.304688 43.304688 199.757812 43.632812 201.195312 44.015625 C 202.636719 44.398438 204.058594 44.835938 205.464844 45.332031 C 206.871094 45.828125 208.253906 46.375 209.617188 46.980469 C 210.980469 47.582031 212.316406 48.238281 213.628906 48.949219 C 214.941406 49.65625 216.222656 50.414062 217.472656 51.222656 C 218.722656 52.035156 219.941406 52.890625 221.125 53.796875 C 222.308594 54.699219 223.457031 55.648438 224.566406 56.644531 C 225.675781 57.640625 226.746094 58.675781 227.773438 59.753906 C 228.800781 60.835938 229.785156 61.953125 230.726562 63.109375 C 231.667969 64.265625 232.558594 65.457031 233.40625 66.679688 C 235.011719 68.980469 236.433594 71.386719 237.667969 73.902344 C 238.90625 76.414062 239.941406 79.011719 240.78125 81.683594 C 241.621094 84.359375 242.25 87.082031 242.675781 89.851562 C 243.097656 92.621094 243.304688 95.410156 243.300781 98.210938 C 243.300781 113.65625 243.265625 128.996094 243.265625 144.332031 Z M 243.265625 144.332031 " fill-opacity="1" fill-rule="nonzero"/><g clip-path="url(#4829e606cf)"><path fill="#ffffff" d="M 198.175781 291.09375 L 198.175781 313.515625 C 200.039062 313.8125 201.914062 314.015625 203.800781 314.121094 C 215.257812 314.121094 226.679688 314.121094 238.140625 314.121094 C 240.535156 314.050781 242.90625 314.242188 245.257812 314.6875 C 245.9375 314.804688 246.605469 314.980469 247.253906 315.214844 C 247.902344 315.453125 248.527344 315.746094 249.121094 316.09375 C 249.71875 316.445312 250.277344 316.84375 250.804688 317.296875 C 251.328125 317.746094 251.804688 318.242188 252.238281 318.777344 C 252.671875 319.316406 253.054688 319.890625 253.386719 320.496094 C 253.714844 321.105469 253.988281 321.734375 254.203125 322.394531 C 254.417969 323.050781 254.574219 323.71875 254.667969 324.40625 C 254.761719 325.089844 254.792969 325.777344 254.761719 326.46875 C 254.695312 327.148438 254.574219 327.820312 254.390625 328.476562 C 254.210938 329.136719 253.976562 329.777344 253.683594 330.394531 C 253.390625 331.015625 253.050781 331.601562 252.65625 332.160156 C 252.265625 332.722656 251.824219 333.242188 251.34375 333.726562 C 250.859375 334.210938 250.335938 334.648438 249.777344 335.042969 C 249.21875 335.433594 248.628906 335.777344 248.011719 336.066406 C 247.390625 336.359375 246.753906 336.59375 246.09375 336.777344 C 245.433594 336.957031 244.765625 337.078125 244.082031 337.144531 C 242.375 337.25 240.667969 337.25 238.960938 337.144531 C 204.011719 337.144531 168.945312 337.144531 133.761719 337.144531 C 131.816406 337.304688 129.871094 337.304688 127.925781 337.144531 C 127.289062 337.027344 126.667969 336.863281 126.058594 336.644531 C 125.449219 336.429688 124.859375 336.164062 124.292969 335.847656 C 123.726562 335.535156 123.191406 335.175781 122.683594 334.773438 C 122.175781 334.371094 121.707031 333.933594 121.269531 333.453125 C 120.835938 332.972656 120.445312 332.460938 120.09375 331.917969 C 119.742188 331.375 119.4375 330.804688 119.179688 330.210938 C 118.925781 329.617188 118.71875 329.003906 118.5625 328.378906 C 118.402344 327.75 118.300781 327.113281 118.246094 326.46875 C 118.210938 325.796875 118.230469 325.128906 118.3125 324.464844 C 118.394531 323.796875 118.535156 323.144531 118.730469 322.503906 C 118.929688 321.859375 119.179688 321.242188 119.488281 320.644531 C 119.796875 320.050781 120.152344 319.484375 120.5625 318.953125 C 120.96875 318.417969 121.421875 317.925781 121.917969 317.476562 C 122.414062 317.023438 122.945312 316.617188 123.511719 316.257812 C 124.082031 315.902344 124.675781 315.597656 125.296875 315.34375 C 125.917969 315.09375 126.558594 314.898438 127.214844 314.757812 C 129.5625 314.265625 131.933594 314.054688 134.332031 314.121094 C 145.007812 314.121094 155.683594 314.121094 166.359375 314.121094 L 174.046875 314.121094 L 174.046875 291.519531 C 167.535156 289.882812 161.058594 288.78125 154.902344 286.644531 C 118.675781 274.121094 95.898438 248.851562 86.503906 211.519531 C 85.304688 206.539062 84.640625 201.484375 84.511719 196.359375 C 84.121094 186.609375 84.082031 176.859375 84.261719 167.109375 C 84.25 166.367188 84.3125 165.628906 84.445312 164.898438 C 84.578125 164.167969 84.78125 163.457031 85.054688 162.765625 C 85.328125 162.074219 85.667969 161.414062 86.070312 160.792969 C 86.472656 160.167969 86.933594 159.589844 87.449219 159.054688 C 87.96875 158.519531 88.53125 158.042969 89.144531 157.621094 C 89.753906 157.199219 90.402344 156.839844 91.082031 156.542969 C 91.765625 156.25 92.46875 156.023438 93.195312 155.867188 C 93.921875 155.710938 94.65625 155.625 95.398438 155.613281 C 96.144531 155.601562 96.878906 155.664062 97.613281 155.796875 C 98.34375 155.929688 99.054688 156.132812 99.746094 156.40625 C 100.4375 156.679688 101.09375 157.019531 101.71875 157.421875 C 102.34375 157.824219 102.921875 158.285156 103.453125 158.800781 C 103.988281 159.320312 104.464844 159.882812 104.890625 160.496094 C 105.3125 161.105469 105.671875 161.753906 105.964844 162.433594 C 106.261719 163.117188 106.488281 163.820312 106.644531 164.546875 C 106.800781 165.273438 106.882812 166.007812 106.894531 166.753906 C 107.320312 175.007812 106.894531 183.300781 107.144531 191.664062 C 107.890625 221.519531 122.234375 243.40625 147.25 258.640625 C 149.152344 259.726562 151.09375 260.734375 153.082031 261.664062 C 155.066406 262.589844 157.085938 263.429688 159.140625 264.191406 C 161.195312 264.949219 163.28125 265.621094 165.390625 266.203125 C 167.503906 266.789062 169.636719 267.285156 171.789062 267.691406 C 173.941406 268.097656 176.105469 268.414062 178.285156 268.640625 C 180.464844 268.867188 182.648438 269.003906 184.839844 269.046875 C 187.03125 269.089844 189.21875 269.042969 191.40625 268.90625 C 193.589844 268.765625 195.769531 268.539062 197.9375 268.21875 C 200.101562 267.898438 202.253906 267.488281 204.386719 266.988281 C 206.519531 266.488281 208.628906 265.902344 210.714844 265.226562 C 212.796875 264.550781 214.851562 263.792969 216.871094 262.945312 C 218.890625 262.101562 220.875 261.171875 222.816406 260.160156 C 224.761719 259.148438 226.660156 258.058594 228.511719 256.886719 C 230.363281 255.71875 232.164062 254.472656 233.914062 253.152344 C 235.660156 251.832031 237.351562 250.441406 238.984375 248.984375 C 240.617188 247.523438 242.1875 245.996094 243.691406 244.402344 C 247.171875 240.882812 250.277344 237.058594 253.007812 232.929688 C 255.742188 228.804688 258.050781 224.453125 259.9375 219.875 C 261.824219 215.300781 263.25 210.585938 264.214844 205.730469 C 265.183594 200.875 265.671875 195.972656 265.683594 191.023438 C 265.683594 184.226562 265.683594 177.394531 265.683594 170.558594 C 265.617188 168.613281 265.75 166.679688 266.078125 164.761719 C 266.203125 164.105469 266.390625 163.46875 266.628906 162.84375 C 266.871094 162.222656 267.164062 161.628906 267.511719 161.058594 C 267.859375 160.488281 268.253906 159.953125 268.695312 159.453125 C 269.136719 158.953125 269.617188 158.496094 270.140625 158.082031 C 270.664062 157.667969 271.21875 157.300781 271.804688 156.988281 C 272.394531 156.671875 273.003906 156.410156 273.640625 156.203125 C 274.273438 155.992188 274.921875 155.84375 275.582031 155.75 C 276.242188 155.660156 276.90625 155.625 277.570312 155.648438 C 278.242188 155.648438 278.910156 155.710938 279.570312 155.832031 C 280.230469 155.957031 280.875 156.144531 281.5 156.390625 C 282.125 156.632812 282.722656 156.9375 283.289062 157.296875 C 283.859375 157.652344 284.386719 158.0625 284.878906 158.519531 C 285.371094 158.980469 285.816406 159.480469 286.210938 160.023438 C 286.609375 160.566406 286.949219 161.140625 287.238281 161.746094 C 287.527344 162.351562 287.757812 162.980469 287.925781 163.632812 C 288.09375 164.28125 288.203125 164.941406 288.246094 165.613281 C 291.058594 203.265625 285.078125 238.035156 255.257812 264.972656 C 251.585938 268.359375 247.683594 271.453125 243.554688 274.257812 C 239.421875 277.0625 235.105469 279.546875 230.601562 281.707031 C 226.101562 283.871094 221.464844 285.6875 216.691406 287.160156 C 211.917969 288.628906 207.0625 289.742188 202.125 290.488281 C 201.09375 290.523438 199.921875 290.878906 198.175781 291.09375 Z M 198.175781 291.09375 " fill-opacity="1" fill-rule="nonzero"/></g></svg>